<svg width="41" height="40" viewBox="0 0 41 40" fill="none" xmlns="http://www.w3.org/2000/svg">
<path fill-rule="evenodd" clip-rule="evenodd" d="M1.46077 0H30.6868C31.4903 0 32.1476 0.663583 32.1476 1.47468V10.0204H17.8971C15.4667 10.0204 15.3499 13.5958 17.621 13.8765C15.4521 14.1439 15.4501 17.4436 17.6181 17.7154C15.866 17.9355 15.4306 20.28 16.7843 21.2381C15.4296 22.1977 15.867 24.5447 17.621 24.7613C15.4521 25.0287 15.4501 28.3283 17.6181 28.6002C15.3485 28.8849 15.4687 32.4559 17.8971 32.4559H32.1476V38.5253C32.1476 39.3364 31.4903 40 30.6868 40H1.46077C0.657323 40 0 39.3364 0 38.5253V1.47468C0 0.663583 0.657323 0 1.46077 0ZM17.8971 29.5544H39.0908C40.3541 29.5544 40.3536 31.4839 39.0908 31.4839H17.8971C16.6333 31.4839 16.6328 29.5544 17.8971 29.5544ZM39.0908 21.877H37.7634C36.5001 21.877 36.4991 23.8061 37.7634 23.8061H39.0908C40.3463 23.8061 40.3448 21.877 39.0908 21.877ZM17.8971 25.7159H39.0908C40.3541 25.7159 40.3536 27.6455 39.0908 27.6455H17.8971C16.6333 27.6455 16.6328 25.7159 17.8971 25.7159ZM17.8971 21.877H34.142C35.4059 21.877 35.4049 23.8061 34.142 23.8061H17.8971C16.6333 23.8061 16.6328 21.877 17.8971 21.877ZM17.8971 18.6701H39.0908C40.3541 18.6701 40.3536 20.5992 39.0908 20.5992H17.8971C16.6333 20.5992 16.6328 18.6701 17.8971 18.6701ZM39.0908 10.9923H37.7634C36.5001 10.9923 36.4991 12.9214 37.7634 12.9214H39.0908C40.3463 12.9214 40.3448 10.9923 39.0908 10.9923ZM17.8971 14.8312H39.0908C40.3541 14.8312 40.3536 16.7608 39.0908 16.7608H17.8971C16.6333 16.7608 16.6328 14.8312 17.8971 14.8312ZM17.8971 10.9923H34.142C35.4059 10.9923 35.4049 12.9214 34.142 12.9214H17.8971C16.6333 12.9214 16.6328 10.9923 17.8971 10.9923ZM12.8685 3.24237L15.098 5.9342H12.8905L12.2801 5.16849H9.96696V14.7162L11.4497 15.4266V16.5999H6.1408V15.4266L7.62357 14.7162V5.16849H5.31047L4.70007 5.9342H2.49254L4.72206 3.24237H12.8685Z" fill="#0083FE"/>
</svg>
